<svg xmlns="http://www.w3.org/2000/svg" width="613.063" height="135.38" viewBox="0 0 613.063 135.38">
  <metadata><?xpacket begin="﻿" id="W5M0MpCehiHzreSzNTczkc9d"?>
<x:xmpmeta xmlns:x="adobe:ns:meta/" x:xmptk="Adobe XMP Core 5.6-c142 79.160924, 2017/07/13-01:06:39        ">
   <rdf:RDF xmlns:rdf="http://www.w3.org/1999/02/22-rdf-syntax-ns#">
      <rdf:Description rdf:about=""/>
   </rdf:RDF>
</x:xmpmeta>
                                                                                                    
                                                                                                    
                                                                                                    
                                                                                                    
                                                                                                    
                                                                                                    
                                                                                                    
                                                                                                    
                                                                                                    
                                                                                                    
                                                                                                    
                                                                                                    
                                                                                                    
                                                                                                    
                                                                                                    
                                                                                                    
                                                                                                    
                                                                                                    
                                                                                                    
                                                                                                    
                           
<?xpacket end="w"?></metadata>
<defs>
    <style>
      .cls-1 {
        fill: #323232;
        fill-rule: evenodd;
      }
    </style>
  </defs>
  <path id="Мороженко" class="cls-1" d="M637.023,1498.33a6.814,6.814,0,0,1-6.823-6.77,8.038,8.038,0,0,1,1.822-4.6v-14.84a5,5,0,0,1,10,0v14.91a7.629,7.629,0,0,1,1.778,4.53A6.775,6.775,0,0,1,637.023,1498.33Zm0-2a4.8,4.8,0,0,1-4.8-4.77,5.237,5.237,0,0,1,1.845-3.78v-15.66a3,3,0,0,1,6,0v15.72a5.092,5.092,0,0,1,1.754,3.72A4.8,4.8,0,0,1,637.023,1496.33Zm2.706-4.91a2.774,2.774,0,1,1-3.675-2.61v-16.84a0.949,0.949,0,0,1,1.9,0v16.87A2.765,2.765,0,0,1,639.729,1491.42ZM645,1475h4a1,1,0,0,1,0,2h-4A1,1,0,0,1,645,1475Zm0-4h4a1,1,0,0,1,0,2h-4A1,1,0,0,1,645,1471Zm0,8h4a1,1,0,0,1,0,2h-4A1,1,0,0,1,645,1479Zm0,4h4a1,1,0,0,1,0,2h-4A1,1,0,0,1,645,1483Zm-7.817-23.2a23.7,23.7,0,1,1-23.7,23.7A23.7,23.7,0,0,1,637.183,1459.8Zm0,45.4a21.7,21.7,0,1,1,21.7-21.7A21.722,21.722,0,0,1,637.183,1505.2ZM652.578,1395a2.42,2.42,0,0,1-2.127,1.04,9.366,9.366,0,0,1-3.256-.84,17.086,17.086,0,0,1-1.576,8.35,5.2,5.2,0,0,1,.517,3.08c-0.488,3.38-4.283,5.23-8.524,5.23s-8.018-1.85-8.48-5.23a5.164,5.164,0,0,1,.33-2.62,17.331,17.331,0,0,1-1.786-8.73,8.929,8.929,0,0,1-3.065.76,2.42,2.42,0,0,1-2.127-1.04,2.326,2.326,0,0,1-.162-2.22c0.812-1.91,3.593-2.74,4.75-3.01l0.1-.02c-1.4-2.9-.723-7.6-0.2-9.19l3.057,0.25c0.056,1,.766,2.88,3.436,5.01l1.585,1.09a12.914,12.914,0,0,1,2.4-.23,12.732,12.732,0,0,1,2.289.21l1.692-1.16c2.67-2.13,3.379-4.01,3.435-5.01l3.058-.26c0.528,1.6,1.207,6.35-.224,9.24l0.294,0.07c1.157,0.27,3.937,1.1,4.75,3.01A2.326,2.326,0,0,1,652.578,1395Zm-25.069-3.28s-2.859.66-3.362,1.85,3.155-.14,3.835-0.7A2.317,2.317,0,0,1,627.509,1391.72Zm3.3,0.07c-1.752,2.75-1.578,7,.467,11.37l0.367,0.78-0.318.8a3.209,3.209,0,0,0-.208,1.62c0.329,2.41,3.6,3.5,6.5,3.5s6.2-1.1,6.545-3.52a3.177,3.177,0,0,0-.33-1.9l-0.416-.84,0.378-.86c1.878-4.25,1.97-8.37.244-11.02-1.3-1.99-3.575-3.04-6.587-3.04C634.4,1388.68,632.1,1389.75,630.806,1391.79Zm20.093,1.78c-0.5-1.19-3.361-1.85-3.361-1.85a2.328,2.328,0,0,1-.474,1.15C647.745,1393.43,651.4,1394.75,650.9,1393.57Zm-18.57-6.1s-3.595-2.48-3.735-5.02c-0.4,2.18-.584,5.62.7,6.99A21,21,0,0,1,632.329,1387.47Zm10.232-.1s3.595-2.47,3.736-5.01c0.4,2.17.584,5.61-.705,6.98A22.893,22.893,0,0,0,642.561,1387.37Zm-5.378-15.57a23.7,23.7,0,1,1-23.7,23.7A23.7,23.7,0,0,1,637.183,1371.8Zm0,45.4a21.7,21.7,0,1,1,21.7-21.7A21.722,21.722,0,0,1,637.183,1417.2ZM71.437,1499.62s-22.24-10.18,0-32.75C93.677,1489.44,71.437,1499.62,71.437,1499.62Zm7.516-17.18-6.536,4.16h0l-0.021,3.68,6.894-4.41A13.37,13.37,0,0,0,78.953,1482.44Zm-15.39,3.19,6.833,4.48v-3.62l-6.453-4.15A13.622,13.622,0,0,0,63.563,1485.63Zm6.833-1.52v-3.63L66,1477.1a21.756,21.756,0,0,0-1.464,3.24Zm0-6.09v-7.04a39.184,39.184,0,0,0-3.356,4.42Zm2,0.28,3.629-2.6a39.493,39.493,0,0,0-3.629-4.82v7.42Zm0.021,2.3h0l-0.021,3.68,5.981-3.85a21.714,21.714,0,0,0-1.337-3.01Zm6.443,7.9-6.443,4.1h0l-0.021,4.16A15.3,15.3,0,0,0,78.859,1488.5Zm-8.463,8.2v-4.21l-6.417-4.13C65.085,1492.5,68.3,1495.29,70.4,1496.7Zm1.1-36.9a23.7,23.7,0,1,1-23.7,23.7A23.7,23.7,0,0,1,71.5,1459.8Zm0,45.4a21.7,21.7,0,1,1,21.7-21.7A21.722,21.722,0,0,1,71.5,1505.2Zm5.954-123.75a8.575,8.575,0,0,0-14.639,6.06v14.68a0.808,0.808,0,0,0,.809.81H79.157a0.808,0.808,0,0,0,.809-0.81v-14.68A8.512,8.512,0,0,0,77.454,1381.45Zm0.894,19.93H64.433v-10.89c0.045,0.05.092,0.1,0.143,0.16a2.619,2.619,0,0,0,4.309,0,1.185,1.185,0,0,1,.946-0.6,1,1,0,0,1,.309.43,10.746,10.746,0,0,1,.488,1.22,9.606,9.606,0,0,0,.7,1.65,1.753,1.753,0,0,0,3.237,0,9.614,9.614,0,0,0,.7-1.65,10.67,10.67,0,0,1,.488-1.22,1,1,0,0,1,.309-0.43,1.186,1.186,0,0,1,.946.6,3.205,3.205,0,0,0,1.346,1v9.73Zm-9.007,8.58a2.049,2.049,0,1,0,4.1,0v-6.16h-4.1v6.16ZM71.5,1371.8a23.7,23.7,0,1,1-23.7,23.7A23.7,23.7,0,0,1,71.5,1371.8Zm0,45.4a21.7,21.7,0,1,1,21.7-21.7A21.722,21.722,0,0,1,71.5,1417.2Z" transform="translate(-47.813 -1371.81)"/>
</svg>
